<svg width="24" height="24" viewBox="0 0 24 24" fill="none" xmlns="http://www.w3.org/2000/svg">
<path d="M15.427 3.34402L14.0561 4.12502L15.427 4.90602L16.1767 6.33402L16.9265 4.90602L18.2974 4.12502L16.9265 3.34402L16.1777 1.91602L15.427 3.34402ZM2.13672 12C2.13672 6.47702 6.43464 2.00002 11.7367 2.00002H13.4014L12.5681 3.50002C12.0122 4.50002 11.7367 5.68902 11.7367 7.00002C11.7366 8.03363 11.9562 9.05446 12.3798 9.98917C12.8033 10.9239 13.4204 11.7493 14.1866 12.4061C14.9527 13.0629 15.849 13.5348 16.8111 13.7879C17.7732 14.041 18.7771 14.0691 19.7508 13.87L21.3655 13.543L20.8442 15.169C20.206 17.1587 18.9832 18.889 17.3489 20.1149C15.7146 21.3408 13.7516 22.0003 11.7377 22C6.4356 22 2.13672 17.523 2.13672 12ZM19.8977 6.41602L20.7751 8.08602L22.3774 9.00002L20.7742 9.91402L19.8967 11.584L19.0202 9.91402L17.417 9.00002L19.0202 8.08602L19.8977 6.41602Z" fill="black"/>
</svg>
