<svg width="35" height="34" viewBox="0 0 35 34" fill="none" xmlns="http://www.w3.org/2000/svg">
<rect width="35" height="34" rx="17" fill="white"/>
<path d="M19.0276 7C20.1526 7.003 20.7236 7.009 21.2166 7.023L21.4106 7.03C21.6346 7.038 21.8556 7.048 22.1226 7.06C23.1866 7.11 23.9126 7.278 24.5496 7.525C25.2096 7.779 25.7656 8.123 26.3216 8.678C26.8303 9.17773 27.2238 9.78247 27.4746 10.45C27.7216 11.087 27.8896 11.813 27.9396 12.878C27.9516 13.144 27.9616 13.365 27.9696 13.59L27.9756 13.784C27.9906 14.276 27.9966 14.847 27.9986 15.972L27.9996 16.718V18.028C28.002 18.7574 27.9944 19.4868 27.9766 20.216L27.9706 20.41C27.9626 20.635 27.9526 20.856 27.9406 21.122C27.8906 22.187 27.7206 22.912 27.4746 23.55C27.2238 24.2175 26.8303 24.8223 26.3216 25.322C25.8219 25.8307 25.2171 26.2242 24.5496 26.475C23.9126 26.722 23.1866 26.89 22.1226 26.94L21.4106 26.97L21.2166 26.976C20.7236 26.99 20.1526 26.997 19.0276 26.999L18.2816 27H16.9726C16.2429 27.0026 15.5131 26.9949 14.7836 26.977L14.5896 26.971C14.3522 26.962 14.1149 26.9517 13.8776 26.94C12.8136 26.89 12.0876 26.722 11.4496 26.475C10.7824 26.2241 10.178 25.8306 9.67859 25.322C9.16954 24.8224 8.7757 24.2176 8.52459 23.55C8.27759 22.913 8.10959 22.187 8.05959 21.122L8.02959 20.41L8.02459 20.216C8.00616 19.4868 7.99782 18.7574 7.99959 18.028V15.972C7.99682 15.2426 8.00416 14.5132 8.02159 13.784L8.02859 13.59C8.03659 13.365 8.04659 13.144 8.05859 12.878C8.10859 11.813 8.27659 11.088 8.52359 10.45C8.77529 9.7822 9.16982 9.17744 9.67959 8.678C10.1787 8.16955 10.7828 7.77607 11.4496 7.525C12.0876 7.278 12.8126 7.11 13.8776 7.06C14.1436 7.048 14.3656 7.038 14.5896 7.03L14.7836 7.024C15.5128 7.00623 16.2422 6.99857 16.9716 7.001L19.0276 7ZM17.9996 12C16.6735 12 15.4017 12.5268 14.4641 13.4645C13.5264 14.4021 12.9996 15.6739 12.9996 17C12.9996 18.3261 13.5264 19.5979 14.4641 20.5355C15.4017 21.4732 16.6735 22 17.9996 22C19.3257 22 20.5974 21.4732 21.5351 20.5355C22.4728 19.5979 22.9996 18.3261 22.9996 17C22.9996 15.6739 22.4728 14.4021 21.5351 13.4645C20.5974 12.5268 19.3257 12 17.9996 12ZM17.9996 14C18.3936 13.9999 18.7837 14.0775 19.1477 14.2282C19.5117 14.3789 19.8424 14.5998 20.1211 14.8783C20.3997 15.1569 20.6207 15.4875 20.7715 15.8515C20.9224 16.2154 21 16.6055 21.0001 16.9995C21.0002 17.3935 20.9226 17.7836 20.7719 18.1476C20.6212 18.5116 20.4003 18.8423 20.1218 19.121C19.8432 19.3996 19.5126 19.6206 19.1486 19.7714C18.7847 19.9223 18.3946 19.9999 18.0006 20C17.2049 20 16.4419 19.6839 15.8793 19.1213C15.3167 18.5587 15.0006 17.7956 15.0006 17C15.0006 16.2044 15.3167 15.4413 15.8793 14.8787C16.4419 14.3161 17.2049 14 18.0006 14M23.2506 10.5C22.9191 10.5 22.6011 10.6317 22.3667 10.8661C22.1323 11.1005 22.0006 11.4185 22.0006 11.75C22.0006 12.0815 22.1323 12.3995 22.3667 12.6339C22.6011 12.8683 22.9191 13 23.2506 13C23.5821 13 23.9001 12.8683 24.1345 12.6339C24.3689 12.3995 24.5006 12.0815 24.5006 11.75C24.5006 11.4185 24.3689 11.1005 24.1345 10.8661C23.9001 10.6317 23.5821 10.5 23.2506 10.5Z" fill="black"/>
</svg>
