<svg width="35" height="34" viewBox="0 0 35 34" fill="none" xmlns="http://www.w3.org/2000/svg">
<rect width="35" height="34" rx="17" fill="white"/>
<path d="M12.9404 9.99905C12.9402 10.5295 12.7292 11.0381 12.3539 11.413C11.9787 11.7879 11.4699 11.9983 10.9394 11.998C10.409 11.9978 9.90039 11.7868 9.52551 11.4116C9.15062 11.0363 8.94016 10.5275 8.94043 9.99705C8.9407 9.46661 9.15166 8.95801 9.52692 8.58313C9.90218 8.20824 10.411 7.99778 10.9414 7.99805C11.4719 7.99831 11.9805 8.20928 12.3554 8.58454C12.7302 8.9598 12.9407 9.46861 12.9404 9.99905ZM13.0004 13.479H9.00043V25.999H13.0004V13.479ZM19.3204 13.479H15.3404V25.999H19.2804V19.429C19.2804 15.769 24.0504 15.429 24.0504 19.429V25.999H28.0004V18.069C28.0004 11.899 20.9404 12.129 19.2804 15.159L19.3204 13.479Z" fill="black"/>
</svg>
