<svg width="35" height="34" viewBox="0 0 35 34" fill="none" xmlns="http://www.w3.org/2000/svg">
<rect width="35" height="34" rx="17" fill="white"/>
<path d="M28.46 11C27.69 11.35 26.86 11.58 26 11.69C26.88 11.16 27.56 10.32 27.88 9.31C27.05 9.81 26.13 10.16 25.16 10.36C24.37 9.5 23.26 9 22 9C19.65 9 17.73 10.92 17.73 13.29C17.73 13.63 17.77 13.96 17.84 14.27C14.28 14.09 11.11 12.38 9.00004 9.79C8.63004 10.42 8.42004 11.16 8.42004 11.94C8.42004 13.43 9.17004 14.75 10.33 15.5C9.62004 15.5 8.96004 15.3 8.38004 15V15.03C8.38004 17.11 9.86004 18.85 11.82 19.24C11.1909 19.4129 10.5301 19.4369 9.89004 19.31C10.1616 20.1625 10.6936 20.9084 11.4111 21.4429C12.1285 21.9775 12.9955 22.2737 13.89 22.29C12.3737 23.4905 10.494 24.1394 8.56004 24.13C8.22004 24.13 7.88004 24.11 7.54004 24.07C9.44004 25.29 11.7 26 14.12 26C22 26 26.33 19.46 26.33 13.79C26.33 13.6 26.33 13.42 26.32 13.23C27.16 12.63 27.88 11.87 28.46 11Z" fill="black"/>
</svg>
