<svg width="24" height="24" viewBox="0 0 24 24" fill="none" xmlns="http://www.w3.org/2000/svg">
<g clip-path="url(#clip0_1176_12572)">
<path d="M24.366 10.2008C23.8006 8.80629 22.89 7.7495 21.806 7.2299C20.6696 6.68421 19.6945 5.63832 19.0738 4.19832C18.6577 3.22634 18.0693 2.42119 17.3655 1.86085C16.6617 1.30051 15.8664 1.00399 15.0567 1C14.4023 1 13.7816 1.19705 13.2139 1.53053C12.4425 2.00042 11.5748 2.00042 10.8034 1.53053C10.2166 1.18621 9.58721 1.00598 8.95087 1C7.26841 1 5.80046 2.24295 4.96411 4.10737C4.31383 5.56665 3.32817 6.67313 2.16905 7.24505C1.0374 7.80242 0.0991934 8.94013 -0.455932 10.4282C-0.857524 11.5098 -1.04266 12.7232 -0.991737 13.94C-0.940818 15.1567 -0.65574 16.3316 -0.166675 17.3402C0.187583 18.0678 0.380421 18.9318 0.380421 19.8109V21.5329C0.958935 20.9614 0.434589 22.6621 0.353337 23.1578V31.2946C0.353337 33.8184 1.42803 36.0663 3.06173 37H20.9371C22.5708 36.0663 23.6455 33.8168 23.6455 31.2946V23.9157C23.5036 23.1472 22.6575 20.5961 23.6055 21.5192V19.8109C23.6055 18.9318 23.7983 18.0678 24.1515 17.3402C24.6651 16.2998 24.9578 15.0772 24.9958 13.8139C25.0337 12.5505 24.8154 11.2979 24.366 10.2008Z" fill="#212121"/>
<path d="M7.5 13.5C7.5 13.7955 7.4418 14.0881 7.32873 14.361C7.21566 14.634 7.04992 14.8821 6.84099 15.091C6.63206 15.2999 6.38402 15.4657 6.11104 15.5787C5.83806 15.6918 5.54547 15.75 5.25 15.75C4.95453 15.75 4.66194 15.6918 4.38896 15.5787C4.11598 15.4657 3.86794 15.2999 3.65901 15.091C3.45008 14.8821 3.28434 14.634 3.17127 14.361C3.0582 14.0881 3 13.7955 3 13.5C3 12.9033 3.23705 12.331 3.65901 11.909C4.08097 11.4871 4.65326 11.25 5.25 11.25C5.84674 11.25 6.41903 11.4871 6.84099 11.909C7.26295 12.331 7.5 12.9033 7.5 13.5ZM21 13.5C21 13.7955 20.9418 14.0881 20.8287 14.361C20.7157 14.634 20.5499 14.8821 20.341 15.091C20.1321 15.2999 19.884 15.4657 19.611 15.5787C19.3381 15.6918 19.0455 15.75 18.75 15.75C18.4545 15.75 18.1619 15.6918 17.889 15.5787C17.616 15.4657 17.3679 15.2999 17.159 15.091C16.9501 14.8821 16.7843 14.634 16.6713 14.361C16.5582 14.0881 16.5 13.7955 16.5 13.5C16.5 12.9033 16.7371 12.331 17.159 11.909C17.581 11.4871 18.1533 11.25 18.75 11.25C19.3467 11.25 19.919 11.4871 20.341 11.909C20.7629 12.331 21 12.9033 21 13.5Z" fill="#F4C6AD"/>
<path d="M4.83105 11.2804L5.2533 17.7372C5.42635 19.0556 6.07327 20.2659 7.0733 21.1423C8.07333 22.0187 9.35811 22.5012 10.6878 22.4997H13.3256C14.6551 22.501 15.9397 22.0184 16.9396 21.1421C17.9395 20.2657 18.5863 19.0554 18.7593 17.7372L19.1628 11.2909L19.1261 11.2842L19.2123 9.84719C19.1973 8.77469 18.3521 7.88969 17.2848 7.84469H15.3266C14.6712 7.84339 14.0302 7.65212 13.4812 7.29406C12.9323 6.93599 12.4989 6.42647 12.2336 5.82719C12.1648 5.65505 12.0462 5.50739 11.8929 5.40315C11.7396 5.29892 11.5587 5.24286 11.3733 5.24219H9.5928C7.01205 5.24219 4.8753 7.35719 4.8753 9.96719V11.2737L4.83105 11.2804Z" fill="#FFD7C2"/>
<path d="M11.4649 13.1451L10.7224 15.5226C10.6872 15.636 10.6792 15.7561 10.6993 15.8732C10.7193 15.9903 10.7667 16.1009 10.8376 16.1962C10.9085 16.2915 11.001 16.3686 11.1074 16.4214C11.2138 16.4741 11.3311 16.501 11.4499 16.4998H12.5494C13.0654 16.4998 13.4291 16.0033 13.2769 15.5218L12.5344 13.1443C12.3746 12.6186 11.6321 12.6186 11.4649 13.1443" fill="#E5AF93"/>
<path d="M12 17.9213C11.3268 17.9258 10.6624 17.7684 10.0627 17.4623C9.87148 17.3648 9.66523 17.5808 9.78598 17.7548C10.0284 18.1197 10.3575 18.4188 10.7439 18.6252C11.1303 18.8317 11.5619 18.939 12 18.9376C12.4381 18.939 12.8697 18.8317 13.2561 18.6252C13.6425 18.4188 13.9716 18.1197 14.214 17.7548C14.334 17.5741 14.1285 17.3648 13.9372 17.4623C13.3376 17.7684 12.6732 17.9258 12 17.9213Z" fill="#990838"/>
<path d="M6.76088 13.0247C6.86928 12.5942 7.12093 12.2134 7.47447 11.945C7.828 11.6765 8.26237 11.5363 8.70615 11.5475C9.14993 11.5587 9.57669 11.7205 9.91627 12.0064C10.2559 12.2923 10.488 12.6853 10.5746 13.1207C10.5831 13.1672 10.5813 13.2151 10.5691 13.2608C10.557 13.3065 10.5349 13.349 10.5045 13.3852C10.474 13.4213 10.4359 13.4504 10.393 13.4701C10.35 13.4899 10.3032 13.4999 10.2559 13.4994H7.13813C7.07964 13.5001 7.02177 13.4873 6.96895 13.4622C6.91613 13.437 6.86975 13.4002 6.83336 13.3544C6.79697 13.3086 6.77152 13.2551 6.75896 13.1979C6.7464 13.1408 6.74705 13.0815 6.76088 13.0247ZM17.2384 13.0247C17.1301 12.6038 16.8853 12.2308 16.5424 11.9638C16.1994 11.6969 15.7777 11.5512 15.3431 11.5494C14.8908 11.5483 14.4521 11.7046 14.1022 11.9914C13.7523 12.2781 13.5131 12.6776 13.4254 13.1214C13.417 13.1679 13.419 13.2155 13.4311 13.2611C13.4432 13.3067 13.4653 13.349 13.4956 13.3851C13.526 13.4212 13.5639 13.4501 13.6068 13.4699C13.6496 13.4897 13.6962 13.4998 13.7434 13.4994H16.8611C16.9196 13.5001 16.9775 13.4873 17.0303 13.4622C17.0831 13.437 17.1295 13.4002 17.1659 13.3544C17.2023 13.3086 17.2277 13.2551 17.2403 13.1979C17.2529 13.1408 17.2522 13.0815 17.2384 13.0247Z" fill="white"/>
<path d="M7.69411 13.1687C7.69413 12.9907 7.73224 12.8147 7.80589 12.6526C7.87954 12.4905 7.98701 12.346 8.1211 12.2289C8.25519 12.1118 8.41278 12.0247 8.58331 11.9735C8.75383 11.9223 8.93333 11.9082 9.10975 11.9321C9.28618 11.9561 9.45544 12.0174 9.60618 12.1122C9.75692 12.2069 9.88565 12.3328 9.98372 12.4814C10.0818 12.63 10.1469 12.7979 10.1748 12.9737C10.2026 13.1496 10.1925 13.3293 10.1451 13.5009H7.73836C7.7088 13.3927 7.69442 13.2809 7.69411 13.1687ZM16.3056 13.1687C16.3056 12.4742 15.7431 11.9199 15.0546 11.9199C14.8906 11.919 14.728 11.9508 14.5763 12.0132C14.4247 12.0757 14.287 12.1678 14.1712 12.284C14.0554 12.4002 13.9639 12.5382 13.9019 12.6901C13.84 12.842 13.8089 13.0047 13.8104 13.1687C13.8104 13.2867 13.8254 13.3974 13.8554 13.5009H16.2614C16.2914 13.3899 16.3064 13.2864 16.3064 13.1687" fill="#7D4533"/>
<path d="M8.94573 12.459C9.06828 12.4587 9.18882 12.4901 9.29564 12.5501C9.40247 12.6102 9.49193 12.6968 9.55535 12.8017C9.61876 12.9066 9.65397 13.026 9.65754 13.1485C9.66111 13.271 9.63293 13.3924 9.57573 13.5007H8.31648C8.25929 13.3924 8.2311 13.271 8.23468 13.1485C8.23825 13.026 8.27345 12.9066 8.33687 12.8017C8.40028 12.6968 8.48975 12.6102 8.59657 12.5501C8.7034 12.4901 8.82394 12.4587 8.94648 12.459M15.0477 12.459C14.9252 12.4587 14.8046 12.4901 14.6978 12.5501C14.591 12.6102 14.5015 12.6968 14.4381 12.8017C14.3747 12.9066 14.3395 13.026 14.3359 13.1485C14.3324 13.271 14.3605 13.3924 14.4177 13.5007H15.677C15.7342 13.3924 15.7624 13.271 15.7588 13.1485C15.7552 13.026 15.72 12.9066 15.6566 12.8017C15.5932 12.6968 15.5037 12.6102 15.3969 12.5501C15.2901 12.4901 15.1703 12.4587 15.0477 12.459Z" fill="black"/>
<path d="M8.7372 12.6898C8.7372 12.8143 8.63819 12.9148 8.51594 12.9148C8.45679 12.9141 8.40033 12.89 8.35878 12.8479C8.31723 12.8058 8.29394 12.749 8.29395 12.6898C8.29395 12.5653 8.39294 12.4648 8.51594 12.4648C8.63894 12.4648 8.73795 12.5653 8.73795 12.6898M14.8842 12.6898C14.8842 12.8143 14.7844 12.9148 14.6614 12.9148C14.6023 12.9141 14.5458 12.89 14.5043 12.8479C14.4627 12.8058 14.4394 12.749 14.4394 12.6898C14.4394 12.5653 14.5392 12.4648 14.6614 12.4648C14.7844 12.4648 14.8842 12.5653 14.8842 12.6898Z" fill="white"/>
<path d="M16.2588 9.12981C16.6901 9.26481 16.9751 9.49131 17.2203 9.70506C17.2979 9.77269 17.3454 9.86837 17.3525 9.97104C17.3595 10.0737 17.3254 10.175 17.2578 10.2526C17.1902 10.3301 17.0945 10.3777 16.9918 10.3847C16.8892 10.3917 16.7879 10.3577 16.7103 10.2901C16.4906 10.0981 16.3031 9.95631 16.0256 9.86931C15.7421 9.78006 15.3303 9.73731 14.6576 9.81981C14.607 9.82601 14.5557 9.8222 14.5066 9.80858C14.4575 9.79495 14.4116 9.77179 14.3714 9.74042C14.3313 9.70905 14.2977 9.67007 14.2726 9.62572C14.2475 9.58137 14.2314 9.53251 14.2252 9.48193C14.219 9.43136 14.2228 9.38006 14.2364 9.33096C14.25 9.28186 14.2732 9.23592 14.3046 9.19577C14.336 9.15562 14.3749 9.12204 14.4193 9.09696C14.4636 9.07187 14.5125 9.05576 14.5631 9.04956C15.3003 8.95956 15.8343 8.99556 16.2588 9.12981ZM7.76732 9.29031C7.53782 9.38031 7.35707 9.47706 7.23107 9.55281L7.02257 9.69081C6.94121 9.75376 6.8882 9.84646 6.87519 9.9485C6.86218 10.0505 6.89024 10.1536 6.95319 10.2349C7.01615 10.3163 7.10884 10.3693 7.21089 10.3823C7.31293 10.3953 7.41596 10.3673 7.49732 10.3043L7.50107 10.3013L7.52357 10.2848L7.62857 10.2173C8.21416 9.87689 8.89501 9.73729 9.56732 9.81981C9.66946 9.83244 9.77243 9.80398 9.85359 9.74068C9.93475 9.67739 9.98743 9.58445 10.0001 9.48231C10.0127 9.38017 9.98423 9.27719 9.92094 9.19604C9.85765 9.11488 9.76471 9.06219 9.66257 9.04956C9.02063 8.97144 8.36934 9.05417 7.76732 9.29031Z" fill="#212121"/>
</g>
<defs>
<clipPath id="clip0_1176_12572">
<rect width="24" height="24" fill="white"/>
</clipPath>
</defs>
</svg>
